<svg xmlns="http://www.w3.org/2000/svg" viewBox="0 0 100 100" width="133.333" height="133.333"><defs><clipPath id="A"><path d="M0 0h100v100H0z"/></clipPath></defs><g clip-path="url(#A)"><clipPath id="B"><path fill="#fff" d="M0 0h100v100H0z"/></clipPath><g clip-path="url(#B)"><circle vector-effect="non-scaling-stroke" cx="50" cy="50" r="46.512" fill="#fff"/><g fill-rule="evenodd" fill="#0c0c0c"><path d="M0 50c0-13.256 5.279-25.977 14.651-35.349S36.744 0 50 0s25.977 5.279 35.349 14.651S100 36.744 100 50h0c0 13.256-5.279 25.977-14.651 35.349S63.256 100 50 100h0c-13.256 0-25.977-5.279-35.349-14.651S0 63.256 0 50zm6.977 0c0-11.395 4.535-22.349 12.604-30.419 3.21-3.209 6.875-5.859 10.843-7.887A43.01 43.01 0 0 1 50 6.977c11.395 0 22.349 4.535 30.419 12.604A43.04 43.04 0 0 1 93.023 50h0c0 11.395-4.535 22.349-12.604 30.419A43.04 43.04 0 0 1 50 93.023h0c-11.395 0-22.349-4.535-30.419-12.604A43.04 43.04 0 0 1 6.977 50zm50.891 22.641a16.75 16.75 0 0 1-6.217-3.874c-.609-.596-1.169-1.232-1.655-1.917-.479.687-1.039 1.322-1.647 1.917a16.75 16.75 0 0 1-6.217 3.874 7.86 7.86 0 0 0 2.124 3.731c1.511 1.465 3.535 2.302 5.651 2.302H50h.093c2.116 0 4.14-.837 5.651-2.302a7.86 7.86 0 0 0 2.124-3.731zm6.87 1.101a17.52 17.52 0 0 0 11.518-4.975c3.279-3.209 5.139-7.581 5.139-12.162 0-.931-.372-1.814-1.023-2.489-.651-.651-1.535-1.023-2.465-1.023-.907 0-1.814.372-2.465 1.023s-1.023 1.535-1.023 2.465a9.99 9.99 0 0 1-3.047 7.186c-1.977 1.954-4.651 3.024-7.419 3.024s-5.441-1.07-7.418-3.024c-.988-.952-1.756-2.089-2.243-3.341 2.768-.903 5.01-2.623 5.01-4.59 0-2.945-5.024-8.618-9.302-8.618s-9.302 5.673-9.302 8.618c0 1.966 2.24 3.686 5.013 4.583-.488 1.255-1.256 2.394-2.246 3.348-1.977 1.954-4.651 3.024-7.418 3.024s-5.442-1.07-7.419-3.024a9.99 9.99 0 0 1-3.047-7.186c0-.93-.372-1.814-1.023-2.465S23 53.093 22.093 53.093c-.93 0-1.814.372-2.465 1.023-.651.675-1.023 1.558-1.023 2.489 0 4.581 1.86 8.953 5.139 12.162a17.52 17.52 0 0 0 11.518 4.975c.563 2.875 1.994 5.525 4.11 7.607 2.814 2.767 6.605 4.302 10.535 4.302h.023.07.07.023c3.93 0 7.721-1.535 10.535-4.302 2.116-2.082 3.547-4.732 4.11-7.607zm8.518-42.463l-1.777-1.776c-1.459-1.459-3.798-1.488-5.221-.065h0 0c-1.422 1.423-1.394 3.762.065 5.22l1.777 1.777-1.777 1.777c-1.459 1.459-1.487 3.798-.065 5.221h0c1.423 1.423 3.762 1.394 5.221-.065l1.777-1.777 1.777 1.777c1.458 1.459 3.797 1.488 5.22.065h0c1.423-1.423 1.394-3.762-.064-5.221l-1.777-1.777 1.777-1.777c1.458-1.458 1.487-3.797.064-5.22h0c-1.423-1.423-3.762-1.394-5.22.065l-1.777 1.776h0zm-46.512 0l-1.777-1.776c-1.458-1.459-3.797-1.488-5.22-.065h0c-1.423 1.423-1.394 3.762.064 5.22l1.777 1.777-1.777 1.777c-1.458 1.459-1.487 3.798-.064 5.221h0c1.423 1.423 3.762 1.394 5.22-.065l1.777-1.777 1.777 1.777c1.459 1.459 3.798 1.488 5.221.065h0c1.422-1.423 1.394-3.762-.065-5.221L31.9 36.435l1.777-1.777c1.459-1.458 1.487-3.797.065-5.22h0c-1.423-1.423-3.762-1.394-5.221.065l-1.777 1.776h0 0z"/></g></g></g></svg>
