<?xml version="1.0" encoding="UTF-8" standalone="no"?><svg xmlns="http://www.w3.org/2000/svg" xmlns:xlink="http://www.w3.org/1999/xlink" style="isolation:isolate" viewBox="0 0 44 44" width="44pt" height="44pt"><defs><clipPath id="_clipPath_gHzSYf4jUSRfsbwLM7QLV812nZxXFNJo"><rect width="44" height="44"/></clipPath></defs><g clip-path="url(#_clipPath_gHzSYf4jUSRfsbwLM7QLV812nZxXFNJo)"><g><g><circle vector-effect="non-scaling-stroke" cx="22" cy="21.999999999999996" r="20.000000000000007" fill="rgb(255,255,255)"/><path d=" M 0.5 22 C 0.5 16.3 2.77 10.83 6.8 6.8 C 10.83 2.77 16.3 0.5 22 0.5 C 27.7 0.5 33.17 2.77 37.2 6.8 C 41.23 10.83 43.5 16.3 43.5 22 L 43.5 22 C 43.5 27.7 41.23 33.17 37.2 37.2 C 33.17 41.23 27.7 43.5 22 43.5 L 22 43.5 C 16.3 43.5 10.83 41.23 6.8 37.2 C 2.77 33.17 0.5 27.7 0.5 22 Z  M 3.5 22 C 3.5 17.1 5.45 12.39 8.92 8.92 C 12.39 5.45 17.1 3.5 22 3.5 C 26.9 3.5 31.61 5.45 35.08 8.92 C 38.55 12.39 40.5 17.1 40.5 22 L 40.5 22 C 40.5 26.9 38.55 31.61 35.08 35.08 C 31.61 38.55 26.9 40.5 22 40.5 L 22 40.5 C 17.1 40.5 12.39 38.55 8.92 35.08 C 5.45 31.61 3.5 26.9 3.5 22 Z " fill-rule="evenodd" fill="rgb(14,14,14)"/><path d=" M 25.383 31.736 C 24.386 31.389 23.476 30.82 22.71 30.07 C 22.448 29.814 22.207 29.54 21.998 29.246 C 21.792 29.541 21.552 29.814 21.29 30.07 C 20.524 30.82 19.614 31.389 18.617 31.736 C 18.765 32.34 19.08 32.897 19.53 33.34 C 20.18 33.97 21.05 34.33 21.96 34.33 L 22 34.33 L 22.04 34.33 C 22.95 34.33 23.82 33.97 24.47 33.34 C 24.92 32.897 25.235 32.34 25.383 31.736 Z  M 28.337 32.209 C 30.195 32.13 31.96 31.371 33.29 30.07 C 34.7 28.69 35.5 26.81 35.5 24.84 C 35.5 24.44 35.34 24.06 35.06 23.77 C 34.78 23.49 34.4 23.33 34 23.33 C 33.61 23.33 33.22 23.49 32.94 23.77 C 32.66 24.05 32.5 24.43 32.5 24.83 C 32.5 25.99 32.03 27.11 31.19 27.92 C 30.34 28.76 29.19 29.22 28 29.22 C 26.81 29.22 25.66 28.76 24.81 27.92 C 24.385 27.51 24.055 27.022 23.846 26.483 C 25.036 26.095 26 25.355 26 24.509 C 26 23.243 23.84 20.804 22 20.804 C 20.16 20.804 18 23.243 18 24.509 C 18 25.355 18.963 26.094 20.156 26.48 C 19.946 27.02 19.616 27.51 19.19 27.92 C 18.34 28.76 17.19 29.22 16 29.22 C 14.81 29.22 13.66 28.76 12.81 27.92 C 11.97 27.11 11.5 25.99 11.5 24.83 C 11.5 24.43 11.34 24.05 11.06 23.77 C 10.78 23.49 10.39 23.33 10 23.33 C 9.6 23.33 9.22 23.49 8.94 23.77 C 8.66 24.06 8.5 24.44 8.5 24.84 C 8.5 26.81 9.3 28.69 10.71 30.07 C 12.04 31.371 13.805 32.13 15.663 32.209 C 15.905 33.445 16.52 34.585 17.43 35.48 C 18.64 36.67 20.27 37.33 21.96 37.33 C 21.96 37.33 21.97 37.33 21.97 37.33 L 22 37.33 L 22.03 37.33 C 22.03 37.33 22.04 37.33 22.04 37.33 C 23.73 37.33 25.36 36.67 26.57 35.48 C 27.48 34.585 28.095 33.445 28.337 32.209 Z " fill-rule="evenodd" fill="rgb(14,14,14)"/><circle vector-effect="non-scaling-stroke" cx="11.999999999999936" cy="16.16721686356444" r="3.0000000000000036" fill="rgb(14,14,14)"/><circle vector-effect="non-scaling-stroke" cx="31.999999999999936" cy="16.16721686356444" r="3.0000000000000053" fill="rgb(14,14,14)"/></g></g></g></svg>
