<?xml version="1.0" encoding="UTF-8" standalone="no"?><!-- Generator: Gravit.io --><svg xmlns="http://www.w3.org/2000/svg" xmlns:xlink="http://www.w3.org/1999/xlink" style="isolation:isolate" viewBox="0 0 100 100" width="100pt" height="100pt"><defs><clipPath id="_clipPath_KXv8D77yrNJqVYHHk8oYEHIz8l9vRx0V"><rect width="100" height="100"/></clipPath></defs><g clip-path="url(#_clipPath_KXv8D77yrNJqVYHHk8oYEHIz8l9vRx0V)"><clipPath id="_clipPath_YOHwuFbC5pUYWuc3TcEHdld0l4mVrobV"><rect x="0" y="0" width="100" height="100" transform="matrix(1,0,0,1,0,0)" fill="rgb(255,255,255)"/></clipPath><g clip-path="url(#_clipPath_YOHwuFbC5pUYWuc3TcEHdld0l4mVrobV)"><g><rect x="0" y="0" width="100" height="100" transform="matrix(1,0,0,1,0,0)" fill="none"/><g><circle vector-effect="non-scaling-stroke" cx="50" cy="50.00000000000001" r="46.51162790697673" fill="rgb(255,255,255)"/><path d=" M 0 50 C 0 36.744 5.279 24.023 14.651 14.651 C 24.023 5.279 36.744 0 50 0 C 63.256 0 75.977 5.279 85.349 14.651 C 94.721 24.023 100 36.744 100 50 L 100 50 C 100 63.256 94.721 75.977 85.349 85.349 C 75.977 94.721 63.256 100 50 100 L 50 100 C 36.744 100 24.023 94.721 14.651 85.349 C 5.279 75.977 0 63.256 0 50 Z  M 6.977 50 C 6.977 38.605 11.512 27.651 19.581 19.581 C 22.791 16.372 26.456 13.722 30.424 11.694 C 36.433 8.622 43.136 6.977 50 6.977 C 61.395 6.977 72.349 11.512 80.419 19.581 C 88.488 27.651 93.023 38.605 93.023 50 L 93.023 50 C 93.023 61.395 88.488 72.349 80.419 80.419 C 72.349 88.488 61.395 93.023 50 93.023 L 50 93.023 C 38.605 93.023 27.651 88.488 19.581 80.419 C 11.512 72.349 6.977 61.395 6.977 50 Z " fill-rule="evenodd" fill="rgb(12,12,12)"/><path d=" M 57.868 72.641 C 55.55 71.836 53.432 70.511 51.651 68.767 C 51.042 68.171 50.482 67.535 49.996 66.85 C 49.517 67.537 48.957 68.172 48.349 68.767 C 46.568 70.511 44.45 71.836 42.132 72.641 C 42.476 74.047 43.21 75.343 44.256 76.372 C 45.767 77.837 47.791 78.674 49.907 78.674 L 50 78.674 L 50.093 78.674 C 52.209 78.674 54.233 77.837 55.744 76.372 C 56.79 75.343 57.524 74.047 57.868 72.641 Z  M 64.738 73.742 C 69.058 73.559 73.164 71.794 76.256 68.767 C 79.535 65.558 81.395 61.186 81.395 56.605 C 81.395 55.674 81.023 54.791 80.372 54.116 C 79.721 53.465 78.837 53.093 77.907 53.093 C 77 53.093 76.093 53.465 75.442 54.116 C 74.791 54.767 74.419 55.651 74.419 56.581 C 74.419 59.279 73.326 61.884 71.372 63.767 C 69.395 65.721 66.721 66.791 63.953 66.791 C 61.186 66.791 58.512 65.721 56.535 63.767 C 55.547 62.815 54.779 61.678 54.292 60.426 C 57.06 59.523 59.302 57.803 59.302 55.836 C 59.302 52.891 54.278 47.218 50 47.218 C 45.722 47.218 40.698 52.891 40.698 55.836 C 40.698 57.802 42.938 59.522 45.711 60.419 C 45.223 61.674 44.455 62.813 43.465 63.767 C 41.488 65.721 38.814 66.791 36.047 66.791 C 33.279 66.791 30.605 65.721 28.628 63.767 C 26.674 61.884 25.581 59.279 25.581 56.581 C 25.581 55.651 25.209 54.767 24.558 54.116 C 23.907 53.465 23 53.093 22.093 53.093 C 21.163 53.093 20.279 53.465 19.628 54.116 C 18.977 54.791 18.605 55.674 18.605 56.605 C 18.605 61.186 20.465 65.558 23.744 68.767 C 26.836 71.794 30.942 73.559 35.262 73.742 C 35.825 76.617 37.256 79.267 39.372 81.349 C 42.186 84.116 45.977 85.651 49.907 85.651 C 49.907 85.651 49.93 85.651 49.93 85.651 L 50 85.651 L 50.07 85.651 C 50.07 85.651 50.093 85.651 50.093 85.651 C 54.023 85.651 57.814 84.116 60.628 81.349 C 62.744 79.267 64.175 76.617 64.738 73.742 Z " fill-rule="evenodd" fill="rgb(12,12,12)"/><path d=" M 73.256 31.279 L 71.479 29.503 C 70.02 28.044 67.681 28.015 66.258 29.438 L 66.258 29.438 L 66.258 29.438 C 64.836 30.861 64.864 33.2 66.323 34.658 L 68.1 36.435 L 66.323 38.212 C 64.864 39.671 64.836 42.01 66.258 43.433 L 66.258 43.433 C 67.681 44.856 70.02 44.827 71.479 43.368 L 73.256 41.591 L 75.033 43.368 C 76.491 44.827 78.83 44.856 80.253 43.433 L 80.253 43.433 C 81.676 42.01 81.647 39.671 80.189 38.212 L 78.412 36.435 L 80.189 34.658 C 81.647 33.2 81.676 30.861 80.253 29.438 L 80.253 29.438 C 78.83 28.015 76.491 28.044 75.033 29.503 L 73.256 31.279 L 73.256 31.279 Z  M 26.744 31.279 L 24.967 29.503 C 23.509 28.044 21.17 28.015 19.747 29.438 L 19.747 29.438 C 18.324 30.861 18.353 33.2 19.811 34.658 L 21.588 36.435 L 19.811 38.212 C 18.353 39.671 18.324 42.01 19.747 43.433 L 19.747 43.433 C 21.17 44.856 23.509 44.827 24.967 43.368 L 26.744 41.591 L 28.521 43.368 C 29.98 44.827 32.319 44.856 33.742 43.433 L 33.742 43.433 C 35.164 42.01 35.136 39.671 33.677 38.212 L 31.9 36.435 L 33.677 34.658 C 35.136 33.2 35.164 30.861 33.742 29.438 L 33.742 29.438 C 32.319 28.015 29.98 28.044 28.521 29.503 L 26.744 31.279 L 26.744 31.279 L 26.744 31.279 Z " fill-rule="evenodd" fill="rgb(12,12,12)"/></g></g></g></g></svg>